{"title":"The Hobbit, The Battle of the Five Armies 2014 DVDrip English Kl","uid":11732966,"size":2314000372,"categoryP":"video","categoryS":"movies","magnet":"?xt=urn:btih:796dd1e44a6674874dff5618570f8fdceb765e50&amp;dn=The+Hobbit%2C+The+Battle+of+the+Five+Armies+2014+DVDrip+English+Kl&amp;tr=udp%3A%2F%2Ftracker.openbittorrent.com%3A80&amp;tr=udp%3A%2F%2Fopen.demonii.com%3A1337&amp;tr=udp%3A%2F%2Ftracker.coppersurfer.tk%3A6969&amp;tr=udp%3A%2F%2Fexodus.desync.com%3A6969","seeders":7,"leechers":1,"uploader":"Klambake","files":6,"time":1425459142,"description":" &lt;a href=&quot;http://i.imgur.com/vnpUoat.jpg&quot; rel=&quot;nofollow&quot; target=&quot;_NEW&quot;&gt;http://i.imgur.com/vnpUoat.jpg&lt;/a&gt;\n\nWith: Martin Freeman, Benedict Cumberbatch and Ian McKellen\n\nBilbo Balings, Thorin Eikenschild en de groep dwergen hebben hun koninkrijk heroverd op Smaug, maar onbedoeld ook een dodelijke kracht losgelaten op de wereld. Door wraak gedreven zorgt Smaug voor vele slachtoffers onder de inwoners van Meerstad. Thorin is geobsedeerd door zijn heroverde rijkdom en heeft zijn vriendschap hiervoor over, daar waar Bilbo gedwongen wordt een wanhopige en gevaarlijke keuze te maken. Maar er zijn grotere gevaren op komst. Gandalf ziet namelijk dat de gevaarlijke vijand Sauron enorme legers met Orks naar de Eenzame Berg stuurt. Wanneer duisternis nadert, staan Elven, Dwergen en mensen voor de keuze: zich verenigen of hun koninkrijk ten onder zien gaan. Bilbo vecht ondertussen voor zijn leven en dat van zijn vrienden tijdens de epische oorlog van de vijf legers, terwijl de toekomst van Midden-Aarde aan een zijden draadje hangt.\n\nBilbo and Company are forced to engage in a war against an array of combatants and keep the Lonely Mountain from falling into the hands of a rising darkness.\n &lt;a href=&quot;\nhttp://www.imdb.com/title/tt2310332&quot; rel=&quot;nofollow&quot; target=&quot;_NEW&quot;&gt;\nhttp://www.imdb.com/title/tt2310332&lt;/a&gt;\t\n\n--------------------- Dutch Friends 4ever ---------------------\n---------------------------------------------------------------\n- Bezoek ook eens mijn vrienden op: &lt;a href=&quot; http://www.Film-Test.nl&quot; rel=&quot;nofollow&quot; target=&quot;_NEW&quot;&gt; http://www.Film-Test.nl&lt;/a&gt; --\n----- voor mijn Nederlandse Sync. ondertitels ---- en meer ----\n------- http://www.Film-Test.nl ---- Over Films en meer -------\n---------------------------------------------------------------\n &lt;a href=&quot;\nhttp://i.imgur.com/2fmPUY2.jpg&quot; rel=&quot;nofollow&quot; target=&quot;_NEW&quot;&gt;\nhttp://i.imgur.com/2fmPUY2.jpg&lt;/a&gt; &lt;a href=&quot;\nhttp://i.imgur.com/aYtSzpI.jpg&quot; rel=&quot;nofollow&quot; target=&quot;_NEW&quot;&gt;\nhttp://i.imgur.com/aYtSzpI.jpg&lt;/a&gt; &lt;a href=&quot;\nhttp://i.imgur.com/8vAniK0.jpg&quot; rel=&quot;nofollow&quot; target=&quot;_NEW&quot;&gt;\nhttp://i.imgur.com/8vAniK0.jpg&lt;/a&gt;\n\nGeneral:\n\nComplete name                            : The HobbitThe Battle of the Five Armies.avi\nFormat                                   : AVI\nFormat/Info                              : Audio Video Interleave\nFile size                                : 2.15 GiB\nDuration                                 : 2h 24mn\nOverall bit rate                         : 2 136 Kbps\n\nVideo:\n\nFormat                                   : MPEG-4 Visual\nFormat profile                           : Simple@L3\nFormat settings, BVOP                    : No\nFormat settings, QPel                    : No\nFormat settings, GMC                     : No warppoints\nFormat settings, Matrix                  : Default (H.263)\nCodec ID                                 : XVID\nCodec ID/Hint                            : XviD\nDuration                                 : 2h 24mn\nSource duration                          : 2h 24mn\nBit rate                                 : 1 677 Kbps\nWidth                                    : 720 pixels\nHeight                                   : 304 pixels\nDisplay aspect ratio                     : 2.35:1\nFrame rate                               : 25.000 fps\nColor space                              : YUV\nChroma subsampling                       : 4:2:0\nBit depth                                : 8 bits\nScan type                                : Progressive\nCompression mode                         : Lossy\nBits/(Pixel*Frame)                       : 0.306\nStream size                              : 1.69 GiB (79%)\nWriting library                          : XviD 1.1.2 (UTC 2006-11-01)\n\nAudio:\n\nFormat                                   : AC-3\nFormat/Info                              : Audio Coding 3\nMode extension                           : CM (complete main)\nFormat settings, Endianness              : Big\nCodec ID                                 : 2000\nDuration                                 : 2h 24mn\nBit rate mode                            : Constant\nBit rate                                 : 448 Kbps\nChannel(s)                               : 6 channels\nChannel positions                        : Front: L C R, Side: L R, LFE\nSampling rate                            : 48.0 KHz\nBit depth                                : 16 bits\nCompression mode                         : Lossy\nStream size                              : 463 MiB (21%)\nAlignment                                : Aligned on interleaves\nInterleave, duration                     : 32 ms (0.80 video frame)","torrent":{"xt":"urn:btih:796dd1e44a6674874dff5618570f8fdceb765e50","amp;dn":"The+Hobbit%2C+The+Battle+of+the+Five+Armies+2014+DVDrip+English+Kl","amp;tr":["udp%3A%2F%2Ftracker.openbittorrent.com%3A80","udp%3A%2F%2Fopen.demonii.com%3A1337","udp%3A%2F%2Ftracker.coppersurfer.tk%3A6969","udp%3A%2F%2Fexodus.desync.com%3A6969"],"infoHash":"796dd1e44a6674874dff5618570f8fdceb765e50","infoHashBuffer":{"type":"Buffer","data":[121,109,209,228,74,102,116,135,77,255,86,24,87,15,143,220,235,118,94,80]},"announce":[],"urlList":[]}}